<svg xmlns="http://www.w3.org/2000/svg" xmlns:xlink="http://www.w3.org/1999/xlink" viewBox="0 0 5644 5644"><defs><path id="a" d="M4300 0c-439 0-830 211-1075 538H403A404 404 0 0 0 0 941v4300c0 222 181 403 403 403h4300c222 0 404-181 404-403V2609c282-412 537-784 537-1265C5644 601 5043 0 4300 0z"/><path id="b" fill="#DB4437" d="M4300 0c-742 0-1344 601-1344 1344 0 1012 1131 1540 1265 2985a80 80 0 0 0 159 0c133-1445 1264-1973 1264-2985C5644 601 5043 0 4300 0z"/><clipPath id="c"><use xlink:href="#a" overflow="visible"/></clipPath><filter id="d" width="280%" height="280%" x="-70%" y="-70%"><feGaussianBlur in="SourceAlpha" stdDeviation="600"/><feComponentTransfer><feFuncA exponent=".7" type="gamma"/></feComponentTransfer><feOffset dx="300" dy="100"/></filter></defs><path fill="#0F9D58" d="M2553 3091 4822 555c-38-11-77-17-119-17H403A404 404 0 0 0 0 941v4300c0 41 6 81 18 118l2535-2268z"/><path fill="#4285F4" d="M2553 3091 285 5626c37 12 77 18 118 18h4300c42 0 81-6 119-18L2553 3091z"/><path fill="#D2D2D2" d="m2553 3091 2536 2268c11-37 18-77 18-118V941c0-41-7-81-18-119L2553 3091z"/><path fill="#F1F1F1" d="M5107 5241 2688 2822l-471 403 2419 2419h67c222 0 404-181 404-403z"/><path fill="#FFDE48" d="M4703 538 0 5241c0 222 181 403 403 403h67l4637-4636v-67c0-222-182-403-404-403z"/><path fill="#FFF" fill-opacity=".2" d="M4703 538H403A404 404 0 0 0 0 941v33c0-221 181-403 403-403h4300c222 0 404 182 404 403v-33c0-222-182-403-404-403z"/><path fill="#263238" fill-opacity=".1" d="M4703 5611H403A404 404 0 0 1 0 5207v34c0 222 181 403 403 403h4300c222 0 404-181 404-403v-34c0 222-182 404-404 404z"/><path fill="#EEE" d="M1142 1545v287h398c-32 170-181 293-398 293a445 445 0 0 1 0-889c109 0 206 37 283 110l212-212a739 739 0 1 0-495 1285c427 0 710-300 710-722 0-53-5-103-14-152h-696z"/><use xlink:href="#b" clip-path="url(#c)" filter="url(#d)" opacity=".3"/><use xlink:href="#b"/><circle cx="4300.3" cy="1343.9" r="470.3" fill="#7B231E"/><path fill="#FFF" fill-opacity=".2" d="M4300 34c736 0 1333 591 1344 1324v-14a1343 1343 0 1 0-2688 0l1 14C2967 625 3565 34 4300 34z"/><path fill="#3E2723" fill-opacity=".2" d="M4380 4296a80 80 0 0 1-159 0c-132-1439-1253-1968-1264-2972l-1 20c0 1012 1131 1540 1265 2985a80 80 0 0 0 159 0c133-1445 1264-1973 1264-2985v-20c-11 1004-1131 1534-1264 2972z"/><radialGradient id="e" cx="140.1" cy="5533.9" r="6883.6" gradientTransform="matrix(1 0 0 -1 0 6183)" gradientUnits="userSpaceOnUse"><stop offset="0" stop-color="#fff" stop-opacity=".1"/><stop offset="1" stop-color="#fff" stop-opacity="0"/></radialGradient><path fill="url(#e)" d="M4300 0c-439 0-830 211-1075 538H403A404 404 0 0 0 0 941v4300c0 222 181 403 403 403h4300c222 0 404-181 404-403V2609c282-412 537-784 537-1265C5644 601 5043 0 4300 0z"/></svg>