<?xml version="1.0" standalone="no"?>
<!DOCTYPE svg PUBLIC "-//W3C//DTD SVG 20010904//EN"
 "http://www.w3.org/TR/2001/REC-SVG-20010904/DTD/svg10.dtd">
<svg version="1.0" xmlns="http://www.w3.org/2000/svg"
 width="700.000000pt" height="700.000000pt" viewBox="0 0 700.000000 700.000000"
 preserveAspectRatio="xMidYMid meet">
<metadata>
Created by potrace 1.14, written by Peter Selinger 2001-2017
</metadata>
<g transform="translate(0.000000,700.000000) scale(0.100000,-0.100000)"
fill="#000000" stroke="none">
<path d="M3245 6988 c-507 -59 -953 -244 -1335 -552 -105 -85 -294 -275 -373
-376 -37 -47 -71 -90 -76 -96 -10 -13 -127 -193 -154 -239 -93 -155 -231 -505
-262 -663 -1 -9 -8 -35 -13 -57 -6 -22 -13 -62 -17 -89 -3 -27 -8 -52 -9 -55
-2 -3 -7 -40 -11 -81 -3 -41 -9 -88 -11 -105 -8 -45 -7 -322 1 -395 17 -167
23 -209 40 -295 46 -223 107 -405 199 -595 66 -137 160 -301 178 -308 5 -2 8
-8 8 -14 0 -14 99 -145 180 -238 35 -41 283 -295 550 -563 267 -268 487 -492
488 -497 2 -6 -16 -10 -40 -11 -23 0 -50 -2 -58 -4 -9 -1 -60 -6 -115 -9 -55
-4 -113 -8 -130 -10 -16 -2 -61 -7 -100 -11 -38 -3 -83 -8 -100 -10 -16 -3
-50 -7 -75 -9 -240 -26 -651 -97 -880 -152 -134 -32 -349 -92 -375 -104 -11
-4 -45 -16 -75 -26 -96 -30 -222 -83 -328 -140 -307 -162 -413 -336 -315 -517
93 -169 420 -347 873 -473 212 -59 628 -146 805 -169 22 -2 51 -7 65 -10 14
-3 45 -7 70 -9 25 -3 77 -9 115 -15 39 -5 102 -13 140 -16 39 -4 80 -8 93 -10
12 -2 62 -7 110 -10 48 -4 94 -8 102 -10 8 -2 62 -7 120 -10 58 -4 123 -8 145
-10 329 -26 1429 -26 1640 0 17 2 80 6 140 10 61 3 124 8 140 9 17 2 62 6 100
10 101 10 165 16 205 21 19 2 60 7 90 10 30 3 66 8 80 10 14 2 43 7 65 9 94
12 135 18 220 32 50 8 104 17 120 20 215 34 593 126 796 194 742 246 932 579
494 865 -227 149 -514 252 -1030 370 -104 24 -425 80 -515 90 -30 3 -62 8 -70
10 -8 2 -44 7 -80 10 -36 3 -72 8 -80 10 -8 2 -44 7 -80 10 -36 3 -72 8 -80
10 -8 2 -60 7 -115 10 -55 4 -102 8 -105 10 -3 2 -59 6 -125 10 -66 4 -121 8
-122 9 -1 1 226 231 505 511 279 281 538 548 576 594 60 73 202 277 245 351
84 147 181 371 225 525 15 50 30 104 35 120 9 30 24 112 21 117 -1 2 3 15 9
29 5 15 13 57 16 95 4 38 9 71 10 74 14 24 22 400 11 496 -3 27 -8 72 -11 100
-3 28 -7 59 -9 70 -2 10 -7 39 -11 64 -14 91 -64 288 -98 385 -271 779 -897
1375 -1687 1607 -87 25 -271 64 -345 73 -32 4 -68 9 -80 12 -36 9 -458 10
-530 1z m459 -1254 c358 -57 671 -262 871 -572 70 -109 141 -274 160 -371 2
-12 6 -30 9 -39 36 -119 39 -364 6 -522 -54 -258 -167 -469 -349 -650 -112
-111 -198 -175 -326 -240 -273 -139 -602 -174 -904 -95 -136 35 -287 107 -411
194 -80 56 -222 195 -282 276 -133 178 -223 406 -245 625 -61 610 297 1160
882 1352 174 57 394 73 589 42z"/>
</g>
</svg>
